# xmcd
#
# Track frame offsets:
#	150
#	18767
#	37177
#	51361
#	71152
#	83245
#	113224
#	131759
#	148223
#	160470
#
# Disc length: 2556 seconds
#
# Revision: 1
# Processed by: cddbd v1.5.2PL0 Copyright (c) Steve Scherf et al.
# Submitted via: audiograbber 1.83.01
#
DISCID=9509fa0a
DTITLE=Vitor Bacalhau - Brand New Dawn
DYEAR=2015
DGENRE=Blues
TTITLE0=Mean Woman
TTITLE1=Gone Too Soon
TTITLE2=Too Much Of A Good Thing
TTITLE3=Nicotine
TTITLE4=You've Got Nothing On Me
TTITLE5=Free Wolf
TTITLE6=Brand New Dawn
TTITLE7=C'ant Get Used
TTITLE8=Cut Me Loose
TTITLE9=Sunday Morning Breakdown
EXTD=
EXTT0=
EXTT1=
EXTT2=
EXTT3=
EXTT4=
EXTT5=
EXTT6=
EXTT7=
EXTT8=
EXTT9=
PLAYORDER=
